<?xml version="1.0" encoding="UTF-8"?>
<svg version="1.1" xmlns="http://www.w3.org/2000/svg" width="40" height="40">
<path d="M0 0 C2.4375 1.0625 2.4375 1.0625 4.3125 3.6875 C5.01375 4.47125 5.715 5.255 6.4375 6.0625 C8.17 5.815 8.17 5.815 9.9375 5.5625 C11.67 5.315 11.67 5.315 13.4375 5.0625 C15.5625 7.1875 15.5625 7.1875 17.4375 10.0625 C18.29472656 10.74441406 19.15195312 11.42632812 20.03515625 12.12890625 C23.46183362 16.31335293 23.0035205 19.64467705 22.75 24.875 C22.72744141 25.75865234 22.70488281 26.64230469 22.68164062 27.55273438 C22.62297428 29.7233891 22.53329979 31.8931669 22.4375 34.0625 C19.42718256 34.99673645 18.57099732 35.10699911 15.4375 34.0625 C15.623125 34.68125 15.80875 35.3 16 35.9375 C16.4375 38.0625 16.4375 38.0625 15.4375 40.0625 C7.1875 40.0625 -1.0625 40.0625 -9.5625 40.0625 C-9.2325 33.7925 -8.9025 27.5225 -8.5625 21.0625 C-9.2225 21.3925 -9.8825 21.7225 -10.5625 22.0625 C-11.02901207 24.18826782 -11.02901207 24.18826782 -11.1875 26.625 C-11.26226563 27.45128906 -11.33703125 28.27757813 -11.4140625 29.12890625 C-11.46304687 29.76699219 -11.51203125 30.40507812 -11.5625 31.0625 C-10.9025 31.0625 -10.2425 31.0625 -9.5625 31.0625 C-9.5625 32.3825 -9.5625 33.7025 -9.5625 35.0625 C-11.22861905 35.105221 -12.89632885 35.10313832 -14.5625 35.0625 C-16.50406832 33.12093168 -15.9121745 29.83419886 -16 27.25 C-15.98828125 23.36328125 -15.98828125 23.36328125 -15.5625 20.0625 C-12.6875 17.9375 -12.6875 17.9375 -9.5625 16.0625 C-8.82164138 13.25589813 -8.82164138 13.25589813 -8.5 10.0625 C-7.80313336 4.35516219 -7.80313336 4.35516219 -5.25 1.25 C-2.5625 0.0625 -2.5625 0.0625 0 0 Z M-3.6875 5.125 C-5.96047969 7.05681609 -5.96047969 7.05681609 -5.8125 10.75 C-5.73 11.843125 -5.6475 12.93625 -5.5625 14.0625 C-2.2625 12.7425 1.0375 11.4225 4.4375 10.0625 C3.1635411 8.02416576 1.82688077 6.02397874 0.4375 4.0625 C-1.66032797 3.9134288 -1.66032797 3.9134288 -3.6875 5.125 Z M11.4375 8.0625 C10.47125833 9.74078408 10.47125833 9.74078408 10.4375 12.0625 C11.6440625 13.3 11.6440625 13.3 12.875 14.5625 C15.80225687 17.68382915 15.77964426 20.23789686 15.75 24.4375 C15.67011351 26.31369131 15.57387859 28.18956739 15.4375 30.0625 C14.4475 30.0625 13.4575 30.0625 12.4375 30.0625 C12.50710937 29.36125 12.57671875 28.66 12.6484375 27.9375 C13.03520894 21.15979094 12.21769972 17.5863881 7.75 12.42578125 C7.316875 11.97589844 6.88375 11.52601562 6.4375 11.0625 C4.624008 12.20676266 2.81173275 13.35295392 1 14.5 C-0.00933594 15.13808594 -1.01867187 15.77617187 -2.05859375 16.43359375 C-4.40803835 17.83899542 -4.40803835 17.83899542 -5.5625 19.0625 C-5.66101171 20.89365883 -5.69222629 22.72869933 -5.6875 24.5625 C-5.69007812 25.5628125 -5.69265625 26.563125 -5.6953125 27.59375 C-5.84120382 30.00649622 -5.84120382 30.00649622 -4.5625 31.0625 C-2.85477642 31.14963831 -1.14351351 31.16950007 0.56640625 31.16015625 C1.60087891 31.15693359 2.63535156 31.15371094 3.70117188 31.15039062 C4.78978516 31.14201172 5.87839844 31.13363281 7 31.125 C8.09248047 31.12048828 9.18496094 31.11597656 10.31054688 31.11132812 C13.01958495 31.09949826 15.72851599 31.08301543 18.4375 31.0625 C19.45127949 20.54394668 19.45127949 20.54394668 15.5 11.125 C13.95120976 9.32371909 13.95120976 9.32371909 12.4375 8.0625 C12.1075 8.0625 11.7775 8.0625 11.4375 8.0625 Z M-4.5625 34.0625 C-4.5625 35.3825 -4.5625 36.7025 -4.5625 38.0625 C-2.29173158 38.08949725 -0.02087179 38.10889453 2.25 38.125 C4.14685547 38.14240234 4.14685547 38.14240234 6.08203125 38.16015625 C9.43355237 38.22409116 9.43355237 38.22409116 12.4375 37.0625 C12.7675 36.0725 13.0975 35.0825 13.4375 34.0625 C7.4975 34.0625 1.5575 34.0625 -4.5625 34.0625 Z " fill="#F5DF7E" transform="translate(16.5625,-0.0625)"/>
<path d="M0 0 C0.99 0.33 1.98 0.66 3 1 C3 3.64 3 6.28 3 9 C3.9075 8.484375 4.815 7.96875 5.75 7.4375 C9 6 9 6 11.375 6.3125 C11.91125 6.539375 12.4475 6.76625 13 7 C10.52240543 9.6191714 8.49521382 11.75239309 5.25 13.375 C2.7221357 14.84639537 2.7221357 14.84639537 2.1875 17.875 C1.74579992 23.55575375 1.94134387 29.31035534 2 35 C7.61 35 13.22 35 19 35 C19 35.33 19 35.66 19 36 C12.07 36 5.14 36 -2 36 C-1.67 29.73 -1.34 23.46 -1 17 C-1.66 17.33 -2.32 17.66 -3 18 C-3.46651207 20.12576782 -3.46651207 20.12576782 -3.625 22.5625 C-3.69976563 23.38878906 -3.77453125 24.21507813 -3.8515625 25.06640625 C-3.90054687 25.70449219 -3.94953125 26.34257812 -4 27 C-3.34 27 -2.68 27 -2 27 C-2 28.32 -2 29.64 -2 31 C-3.66611905 31.042721 -5.33382885 31.04063832 -7 31 C-8.94156832 29.05843168 -8.3496745 25.77169886 -8.4375 23.1875 C-8.42578125 19.30078125 -8.42578125 19.30078125 -8 16 C-5.125 13.875 -5.125 13.875 -2 12 C-0.84383338 8.04976404 -0.37315576 4.09184592 0 0 Z " fill="#F4D269" transform="translate(9,4)"/>
<path d="M0 0 C0.33 0 0.66 0 1 0 C1 6.27 1 12.54 1 19 C-3 20 -3 20 -6 19 C-5.814375 19.61875 -5.62875 20.2375 -5.4375 20.875 C-5 23 -5 23 -6 25 C-12.93 24.67 -19.86 24.34 -27 24 C-28.32229189 21.35541621 -28.09677194 19.32238699 -28.0625 16.375 C-28.05347656 15.37210938 -28.04445313 14.36921875 -28.03515625 13.3359375 C-28.02355469 12.56507812 -28.01195312 11.79421875 -28 11 C-27.34 12.32 -26.68 13.64 -26 15 C-18.41 15.33 -10.82 15.66 -3 16 C-3 11.05 -3 6.1 -3 1 C-2.67 1 -2.34 1 -2 1 C-2 6.28 -2 11.56 -2 17 C-1.34 17.33 -0.68 17.66 0 18 C0 12.06 0 6.12 0 0 Z M-26 19 C-26 20.32 -26 21.64 -26 23 C-23.72923158 23.02699725 -21.45837179 23.04639453 -19.1875 23.0625 C-17.29064453 23.07990234 -17.29064453 23.07990234 -15.35546875 23.09765625 C-12.00394763 23.16159116 -12.00394763 23.16159116 -9 22 C-8.67 21.01 -8.34 20.02 -8 19 C-13.94 19 -19.88 19 -26 19 Z " fill="#F9E084" transform="translate(38,15)"/>
<path d="M0 0 C3.71866485 1.23955495 5.32283886 3.18554854 8 6 C8.66 6.66 9.32 7.32 10 8 C10.22705078 10.06298828 10.22705078 10.06298828 10.1953125 12.5703125 C10.18564453 13.91416016 10.18564453 13.91416016 10.17578125 15.28515625 C10.15902344 16.22230469 10.14226563 17.15945312 10.125 18.125 C10.11597656 19.06988281 10.10695313 20.01476562 10.09765625 20.98828125 C10.07404522 23.32577292 10.04111516 25.66276123 10 28 C8.02 28 6.04 28 4 28 C5.32 27.67 6.64 27.34 8 27 C8 21.72 8 16.44 8 11 C7.01 10.67 6.02 10.34 5 10 C3.65729179 8.00628175 2.32346506 6.0065438 1 4 C0.34 4 -0.32 4 -1 4 C-0.67 2.68 -0.34 1.36 0 0 Z " fill="#F3D462" transform="translate(28,5)"/>
<path d="M0 0 C1.98 0.495 1.98 0.495 4 1 C3.67 4.63 3.34 8.26 3 12 C3.66 12 4.32 12 5 12 C5 13.32 5 14.64 5 16 C3.33388095 16.042721 1.66617115 16.04063832 0 16 C-1 15 -1 15 -1.1328125 11.875 C-1.13023438 10.59625 -1.12765625 9.3175 -1.125 8 C-1.12757812 6.72125 -1.13015625 5.4425 -1.1328125 4.125 C-1 1 -1 1 0 0 Z " fill="#F4D07E" transform="translate(2,19)"/>
<path d="M0 0 C3.51454989 1.4936837 4.63716863 3.81979353 6.5 7.0625 C5.84 7.0625 5.18 7.0625 4.5 7.0625 C4.17 7.7225 3.84 8.3825 3.5 9.0625 C2 7.6875 2 7.6875 0.5 6.0625 C0.5 5.4025 0.5 4.7425 0.5 4.0625 C-1.48 5.0525 -3.46 6.0425 -5.5 7.0625 C-5.83 5.7425 -6.16 4.4225 -6.5 3.0625 C-4.2627115 0.99093657 -3.09646834 0.07741171 0 0 Z " fill="#F4D782" transform="translate(16.5,-0.0625)"/>
<path d="M0 0 C1.11375 0.3403125 1.11375 0.3403125 2.25 0.6875 C1.26 1.0175 0.27 1.3475 -0.75 1.6875 C-0.42 2.3475 -0.09 3.0075 0.25 3.6875 C-1.73 4.6775 -3.71 5.6675 -5.75 6.6875 C-6.08 5.3675 -6.41 4.0475 -6.75 2.6875 C-4.29511132 0.41445492 -3.41240272 -0.38777304 0 0 Z " fill="#F8DE9B" transform="translate(16.75,0.3125)"/>
<path d="M0 0 C2.125 0.375 2.125 0.375 4 1 C1.6875 3.5 1.6875 3.5 -1 6 C-1.99 6 -2.98 6 -4 6 C-2.84826645 3.53199953 -1.95216435 1.95216435 0 0 Z " fill="#F0DD5E" transform="translate(18,10)"/>
<path d="M0 0 C0.99 0.33 1.98 0.66 3 1 C2.67 1.66 2.34 2.32 2 3 C1.01 2.67 0.02 2.34 -1 2 C-0.67 1.34 -0.34 0.68 0 0 Z " fill="#EEE092" transform="translate(17,24)"/>
<path d="M0 0 C0.66 0 1.32 0 2 0 C2 0.99 2 1.98 2 3 C1.01 2.67 0.02 2.34 -1 2 C-0.67 1.34 -0.34 0.68 0 0 Z " fill="#EED49A" transform="translate(17,20)"/>
<path d="M0 0 C0.66 0 1.32 0 2 0 C2 0.99 2 1.98 2 3 C1.34 3 0.68 3 0 3 C0 2.01 0 1.02 0 0 Z " fill="#F1DBA6" transform="translate(21,24)"/>
<path d="M0 0 C0.66 0 1.32 0 2 0 C2 0.99 2 1.98 2 3 C1.34 3 0.68 3 0 3 C0 2.01 0 1.02 0 0 Z " fill="#E9CF95" transform="translate(21,20)"/>
</svg>
